<svg id="Layer_1" data-name="Layer 1" xmlns="http://www.w3.org/2000/svg" viewBox="0 0 512 512"><title>twitter-flat</title><path d="M0,256C0,114.62,114.62,0,256,0S512,114.63,512,256,397.37,512,256,512,0,397.38,0,256Z" fill="#0f0f0f"/><path d="M218.21,300.16c-20.51-.72-33.32-15.43-36.72-27.39a39.38,39.38,0,0,0,16.92-.51A3.4,3.4,0,0,0,199,272c-11.1-2.57-19.67-8.52-25.64-18.1a38.27,38.27,0,0,1-5.78-21,38.82,38.82,0,0,0,17.56,4.8c-8.35-6-14-13.87-16.24-23.93a39.17,39.17,0,0,1,4.23-28.6c21.38,25.18,48.43,39,81.4,41.23-.22-1.55-.47-2.92-.63-4.3a38.4,38.4,0,0,1,5.75-25.81c6.28-9.85,15.26-16,26.77-17.83,13.27-2.18,24.85,1.6,34.55,11a2,2,0,0,0,2.11.63A79.87,79.87,0,0,0,346,181.24a4.34,4.34,0,0,1,.52-.26s.11,0,.26,0a40.48,40.48,0,0,1-16.9,21.49,76,76,0,0,0,22-5.93l.16.17c-1.51,2-3,4-4.54,5.93a77.31,77.31,0,0,1-14.35,13.63,1.36,1.36,0,0,0-.66,1.26,108.67,108.67,0,0,1-.73,17.51,116.35,116.35,0,0,1-10.17,35.13,114.06,114.06,0,0,1-21.33,31.12A105.39,105.39,0,0,1,246,331.48a116.78,116.78,0,0,1-22,2.62,111.55,111.55,0,0,1-63.15-16.94c-.25-.14-.49-.33-.93-.62a79.63,79.63,0,0,0,39.48-5.45A77.58,77.58,0,0,0,218.21,300.16Z" fill="#fff" fill-rule="evenodd"/></svg>